<svg xmlns="http://www.w3.org/2000/svg"><symbol id="devices" viewBox="0 0 457.68 457.68"><path d="M439.48 167.086V55.837c0-17.81-14.49-32.3-32.3-32.3H32.3c-17.811 0-32.3 14.49-32.3 32.3v226.63c0 17.81 14.49 32.3 32.3 32.3h106.243l-12.162 13.09H108.16a7.5 7.5 0 0 0 0 15h104.361v72.334c0 10.449 8.501 18.951 18.951 18.951h80.627c10.449 0 18.951-8.501 18.951-18.951v-15.234h100.94c14.166 0 25.69-11.529 25.69-25.7v-182.59c0-11.563-7.674-21.364-18.2-24.581zm3.2 24.581v2.049H270.19v-2.049c0-5.9 4.8-10.7 10.7-10.7h151.1c5.895.001 10.69 4.801 10.69 10.7zm-130.581 63.364H270.19v-46.315h172.49v148.491H331.05v-83.226c0-10.449-8.502-18.95-18.951-18.95zm3.951 28.809h-88.528v-9.858a3.956 3.956 0 0 1 3.951-3.951H312.1a3.956 3.956 0 0 1 3.951 3.951v9.858zM424.479 63.337v102.63h-143.59c-14.171 0-25.7 11.529-25.7 25.7v63.364h-23.718c-10.441 0-18.936 8.488-18.949 18.926H14.999V63.337h409.48zM227.52 298.84h88.528v91.495H227.52V298.84zM32.299 38.537h374.88c6.85 0 12.765 4.012 15.565 9.8H16.733c2.801-5.788 8.716-9.8 15.566-9.8zM16.274 288.958h196.247v10.81H32.299c-7.243-.001-13.452-4.48-16.025-10.81zm130.582 38.899l12.162-13.09h53.503v13.09h-65.665zm165.242 91.286h-80.627a3.956 3.956 0 0 1-3.951-3.951v-9.857h88.528v9.857a3.955 3.955 0 0 1-3.95 3.951zm119.891-34.185h-100.94v-12.75h111.63v2.05c0 5.899-4.795 10.7-10.69 10.7z"/></symbol><symbol id="monitor" viewBox="0 0 471 471"><path d="M443.5 86.676h-416a5 5 0 0 0-5 5v253.493a5 5 0 0 0 5 5h416a5 5 0 0 0 5-5V91.676a5 5 0 0 0-5-5zm-5 253.493h-406V96.676h406v243.493z"/><path d="M449.055 64.176H21.946C9.845 64.176 0 74.021 0 86.121v264.602c0 12.101 9.845 21.945 21.946 21.945h148.343l-7.91 19.156h-31.772a7.5 7.5 0 0 0 0 15h209.79c4.143 0 7.5-3.358 7.5-7.5s-3.357-7.5-7.5-7.5h-31.772l-7.911-19.156h148.343c12.101 0 21.945-9.845 21.945-21.945V86.121c-.002-12.1-9.846-21.945-21.947-21.945zM292.394 391.825H178.606l7.911-19.156h97.967l7.91 19.156zM456 350.724a6.952 6.952 0 0 1-6.945 6.945H21.946c-3.83 0-6.946-3.116-6.946-6.945V86.121a6.954 6.954 0 0 1 6.946-6.946h427.109A6.953 6.953 0 0 1 456 86.121v264.603z"/></symbol><symbol id="mouse" viewBox="0 0 401.396 401.396"><path d="M200.698 0c-68.997 0-125.13 56.133-125.13 125.129v151.137c0 68.997 56.133 125.129 125.13 125.129s125.129-56.133 125.129-125.129V125.129C325.827 56.133 269.695 0 200.698 0zm110.129 125.129v1.973c-32.303 16.982-68.429 26.282-105.133 27.057v-41.835c10.585-2.298 18.539-11.734 18.539-22.997V57.96c0-11.263-7.954-20.699-18.539-22.997V15.118c58.416 2.622 105.133 50.961 105.133 110.011zM200.698 44.424c7.463 0 13.536 6.072 13.536 13.536v31.368c0 7.463-6.072 13.536-13.536 13.536s-13.536-6.072-13.536-13.536V57.96c0-7.463 6.073-13.536 13.536-13.536zm-5.003-29.305v19.846c-10.581 2.301-18.532 11.735-18.532 22.995v31.368c0 11.26 7.951 20.694 18.532 22.995v41.837c-36.699-.775-72.823-10.076-105.126-27.059v-1.971c-.001-59.049 46.714-107.386 105.126-110.011zm5.003 371.277c-60.726 0-110.13-49.404-110.13-110.129V138.339c34.015 16.958 71.851 25.88 110.126 25.88 38.28 0 76.118-8.921 110.133-25.878v137.925c0 60.726-49.403 110.13-110.129 110.13z"/></symbol></svg>